<?xml version="1.0" standalone="no"?><!DOCTYPE svg PUBLIC "-//W3C//DTD SVG 1.1//EN" "http://www.w3.org/Graphics/SVG/1.1/DTD/svg11.dtd"><svg t="1732947596923" class="icon" viewBox="0 0 3754 1024" version="1.1" xmlns="http://www.w3.org/2000/svg" p-id="6577" xmlns:xlink="http://www.w3.org/1999/xlink" width="733.203125" height="200"><path d="M1486.506667 607.573333L1409.706667 307.2H1297.066667l-80.213334 300.373333L1150.293333 307.2h-117.76l117.76 436.906667h124.586667l76.8-285.013334 78.506667 285.013334h124.586666L1672.533333 307.2h-114.346666zM1906.346667 404.48c-58.026667 0-104.106667 15.36-138.24 47.786667-34.133333 34.133333-52.906667 81.92-49.493334 129.706666-3.413333 47.786667 17.066667 95.573333 52.906667 128 35.84 29.013333 85.333333 44.373333 151.893333 44.373334 23.893333 0 47.786667-1.706667 69.973334-6.826667 23.893333-5.12 46.08-11.946667 68.266666-20.48v-85.333333h-11.946666c-15.36 10.24-32.426667 18.773333-49.493334 25.6-20.48 8.533333-42.666667 11.946667-64.853333 11.946666-29.013333 1.706667-56.32-5.12-80.213333-20.48-18.773333-13.653333-29.013333-35.84-29.013334-59.733333h242.346667v-37.546667c0-51.2-13.653333-90.453333-40.96-117.76s-68.266667-39.253333-121.173333-39.253333z m-81.92 133.12c0-18.773333 8.533333-37.546667 22.186666-51.2 15.36-11.946667 32.426667-17.066667 51.2-15.36 17.066667-1.706667 35.84 5.12 47.786667 17.066667 11.946667 13.653333 17.066667 32.426667 17.066667 49.493333h-138.24zM2377.386667 525.653333L2280.106667 307.2h-131.413334v436.906667h105.813334V450.56l81.92 191.146667h76.8l81.92-191.146667v293.546667h112.64V307.2h-131.413334zM2877.44 404.48c-58.026667 0-104.106667 15.36-138.24 47.786667-34.133333 34.133333-52.906667 81.92-49.493333 129.706666-3.413333 47.786667 17.066667 95.573333 52.906666 128 35.84 29.013333 85.333333 44.373333 151.893334 44.373334 23.893333 0 47.786667-1.706667 69.973333-6.826667 23.893333-5.12 46.08-11.946667 68.266667-20.48v-85.333333h-11.946667c-15.36 10.24-32.426667 18.773333-49.493333 25.6-20.48 8.533333-42.666667 11.946667-64.853334 11.946666-29.013333 1.706667-56.32-5.12-80.213333-20.48-18.773333-13.653333-29.013333-35.84-29.013333-59.733333H3037.866667v-37.546667c0-51.2-13.653333-90.453333-40.96-117.76s-66.56-39.253333-119.466667-39.253333z m-81.92 133.12c0-18.773333 8.533333-37.546667 22.186667-51.2 13.653333-10.24 32.426667-17.066667 49.493333-15.36 17.066667-1.706667 35.84 5.12 47.786667 17.066667 11.946667 13.653333 17.066667 32.426667 17.066666 49.493333h-136.533333zM3276.8 404.48c-58.026667 0-104.106667 15.36-138.24 47.786667-34.133333 34.133333-52.906667 81.92-49.493333 129.706666-3.413333 47.786667 17.066667 95.573333 52.906666 128 35.84 29.013333 87.04 44.373333 151.893334 44.373334 23.893333 0 47.786667-1.706667 69.973333-6.826667 23.893333-5.12 46.08-11.946667 68.266667-20.48v-85.333333h-11.946667c-15.36 10.24-32.426667 20.48-49.493333 25.6-20.48 8.533333-42.666667 11.946667-64.853334 11.946666-29.013333 1.706667-56.32-5.12-80.213333-20.48-18.773333-13.653333-29.013333-35.84-29.013333-59.733333h242.346666v-37.546667c0-51.2-13.653333-90.453333-40.96-117.76s-68.266667-39.253333-121.173333-39.253333z m-80.213333 133.12c0-18.773333 8.533333-37.546667 22.186666-51.2 13.653333-10.24 32.426667-17.066667 49.493334-15.36 17.066667-1.706667 35.84 5.12 47.786666 17.066667 11.946667 13.653333 17.066667 32.426667 17.066667 49.493333h-136.533333zM3723.946667 486.4v-71.68h-98.986667v-93.866667h-105.813333v93.866667h-44.373334v71.68h44.373334v153.6c0 40.96 10.24 68.266667 30.72 85.333333s51.2 25.6 92.16 25.6c15.36 0 30.72 0 46.08-3.413333 11.946667-1.706667 23.893333-3.413333 35.84-6.826667v-71.68h-8.533334c-11.946667 5.12-25.6 8.533333-40.96 10.24-10.24 0-20.48-1.706667-30.72-5.12-6.826667-3.413333-11.946667-10.24-15.36-17.066666-3.413333-6.826667-5.12-15.36-5.12-23.893334v-146.773333h100.693334zM474.453333 68.266667c-245.76 0-443.733333 197.973333-443.733333 443.733333s197.973333 443.733333 443.733333 443.733333 443.733333-197.973333 443.733334-443.733333c0-244.053333-197.973333-443.733333-443.733334-443.733333z m0 861.866666c-230.4 0-418.133333-187.733333-418.133333-418.133333s187.733333-418.133333 418.133333-418.133333S892.586667 279.893333 892.586667 512c0 230.4-187.733333 418.133333-418.133334 418.133333z" fill="#8D8F95" p-id="6578"></path><path d="M271.36 361.813333c34.133333 0 61.44-27.306667 61.44-61.44S305.493333 238.933333 271.36 238.933333s-61.44 27.306667-61.44 61.44c0 32.426667 27.306667 61.44 61.44 61.44zM669.013333 237.226667c-34.133333 0-61.44 27.306667-61.44 61.44s27.306667 61.44 61.44 61.44 61.44-27.306667 61.44-61.44-27.306667-61.44-61.44-61.44zM617.813333 395.946667c0 68.266667-66.56 122.88-148.48 122.88-75.093333 0-136.533333-44.373333-146.773333-104.106667v-18.773333h-102.4v407.893333h100.693333V571.733333c90.453333 59.733333 206.506667 58.026667 295.253334-1.706666v233.813333H716.8V395.946667h-98.986667z" fill="#8D8F95" p-id="6579"></path></svg>