<?xml version="1.0" standalone="no"?><!DOCTYPE svg PUBLIC "-//W3C//DTD SVG 1.1//EN" "http://www.w3.org/Graphics/SVG/1.1/DTD/svg11.dtd"><svg t="1732968640324" class="icon" viewBox="0 0 1024 1024" version="1.1" xmlns="http://www.w3.org/2000/svg" p-id="1606" xmlns:xlink="http://www.w3.org/1999/xlink" width="200" height="200"><path d="M365.7 768.1c20.2 0 36.5 16.3 36.5 36.5s-16.3 36.5-36.5 36.5H219.4c-20.2 0-36.5-16.3-36.5-36.5V219.4c0-20.2 16.3-36.5 36.5-36.5h146.3c20.2 0 36.5 16.3 36.5 36.5s-16.3 36.5-36.5 36.5H255.9V768h109.8z" fill="#A9A9A9" p-id="1607"></path><path d="M833.9 486.3L610.7 271.1c-14.5-14-37.6-13.6-51.6 0.9s-13.6 37.6 0.9 51.6l156.7 151.1H361.2c-20.2 0-36.5 16.3-36.5 36.5s16.3 36.5 36.5 36.5h360.9L559.5 711.4c-14.2 14.3-14.1 37.4 0.2 51.6s37.4 14.1 51.6-0.2l223.2-224.6c14.4-14.4 14.1-37.8-0.6-51.9z" fill="#A9A9A9" p-id="1608"></path></svg>